<svg width="40" height="40" viewBox="0 0 40 40" fill="none" xmlns="http://www.w3.org/2000/svg">
<mask id="mask0_1069_4648" style="mask-type:alpha" maskUnits="userSpaceOnUse" x="0" y="0" width="40" height="40">
<rect width="40" height="40" fill="#D9D9D9"/>
</mask>
<g mask="url(#mask0_1069_4648)">
<path d="M8.85661 29.2228C8.60536 29.2228 8.39964 29.1372 8.23946 28.9661C8.07982 28.7943 8 28.5944 8 28.3662C8 28.1144 8.07982 27.9087 8.23946 27.749C8.39964 27.5888 8.60536 27.5087 8.85661 27.5087H14.7887C15.04 27.5087 15.2457 27.5888 15.4059 27.749C15.5655 27.9087 15.6453 28.1144 15.6453 28.3662C15.6453 28.6174 15.5655 28.8231 15.4059 28.9833C15.2457 29.143 15.04 29.2228 14.7887 29.2228H8.85661ZM8.85661 12.4913C8.60536 12.4913 8.39964 12.4112 8.23946 12.251C8.07982 12.0913 8 11.8856 8 11.6338C8 11.3826 8.07982 11.1768 8.23946 11.0167C8.39964 10.857 8.60536 10.7772 8.85661 10.7772H20.3769C20.6287 10.7772 20.8344 10.8628 20.994 11.0339C21.1542 11.2057 21.2343 11.4056 21.2343 11.6338C21.2343 11.8856 21.1542 12.0913 20.994 12.251C20.8344 12.4112 20.6287 12.4913 20.3769 12.4913H8.85661ZM19.6231 32C19.3713 32 19.1656 31.9202 19.006 31.7605C18.8458 31.6004 18.7657 31.3946 18.7657 31.1434V25.5544C18.7657 25.3257 18.8458 25.1257 19.006 24.9545C19.1656 24.7828 19.3713 24.697 19.6231 24.697C19.8744 24.697 20.0801 24.7828 20.2403 24.9545C20.3999 25.1257 20.4797 25.3257 20.4797 25.5544V27.5087H31.1434C31.3946 27.5087 31.6004 27.5888 31.7605 27.749C31.9202 27.9087 32 28.1144 32 28.3662C32 28.6174 31.9202 28.8231 31.7605 28.9833C31.6004 29.143 31.3946 29.2228 31.1434 29.2228H20.4797V31.1434C20.4797 31.3946 20.3942 31.6004 20.223 31.7605C20.0513 31.9202 19.8513 32 19.6231 32ZM14.7887 23.6346C14.5369 23.6346 14.3312 23.5545 14.1716 23.3944C14.0114 23.2342 13.9313 23.0285 13.9313 22.7772V20.8574H8.85661C8.60536 20.8574 8.39964 20.7773 8.23946 20.6172C8.07982 20.457 8 20.2513 8 20C8 19.7487 8.07982 19.543 8.23946 19.3828C8.39964 19.2227 8.60536 19.1426 8.85661 19.1426H13.9313V17.1882C13.9313 16.937 14.0171 16.7313 14.1888 16.5711C14.36 16.4114 14.56 16.3316 14.7887 16.3316C15.04 16.3316 15.2457 16.4114 15.4059 16.5711C15.5655 16.7313 15.6453 16.937 15.6453 17.1882V22.7772C15.6453 23.0285 15.5655 23.2342 15.4059 23.3944C15.2457 23.5545 15.04 23.6346 14.7887 23.6346ZM19.6231 20.8574C19.3713 20.8574 19.1656 20.7773 19.006 20.6172C18.8458 20.457 18.7657 20.2513 18.7657 20C18.7657 19.7487 18.8458 19.543 19.006 19.3828C19.1656 19.2227 19.3713 19.1426 19.6231 19.1426H31.1434C31.3946 19.1426 31.6004 19.2227 31.7605 19.3828C31.9202 19.543 32 19.7487 32 20C32 20.2513 31.9202 20.457 31.7605 20.6172C31.6004 20.7773 31.3946 20.8574 31.1434 20.8574H19.6231ZM25.2113 15.303C24.96 15.303 24.7543 15.2172 24.5941 15.0455C24.4345 14.8743 24.3547 14.6628 24.3547 14.411V8.85661C24.3547 8.60536 24.4345 8.39964 24.5941 8.23946C24.7543 8.07982 24.96 8 25.2113 8C25.4631 8 25.6688 8.07982 25.8284 8.23946C25.9886 8.39964 26.0687 8.60536 26.0687 8.85661V10.7772H31.1434C31.3946 10.7772 31.6004 10.8628 31.7605 11.0339C31.9202 11.2057 32 11.4056 32 11.6338C32 11.8856 31.9202 12.0913 31.7605 12.251C31.6004 12.4112 31.3946 12.4913 31.1434 12.4913H26.0687V14.411C26.0687 14.6628 25.9829 14.8743 25.8111 15.0455C25.64 15.2172 25.44 15.303 25.2113 15.303Z" fill="#FCFCFC"/>
</g>
</svg>
