<svg width="40" height="40" viewBox="0 0 40 40" fill="none" xmlns="http://www.w3.org/2000/svg">
<mask id="mask0_1028_3548" style="mask-type:alpha" maskUnits="userSpaceOnUse" x="0" y="0" width="40" height="40">
<rect width="40" height="40" fill="#D9D9D9"/>
</mask>
<g mask="url(#mask0_1028_3548)">
<path d="M10.3722 34C9.44375 34 8.6496 33.6644 7.98976 32.9933C7.32992 32.3222 7 31.5019 7 30.5325V27.8857C7 27.5623 7.10997 27.2888 7.32992 27.0651C7.54987 26.8414 7.81849 26.7295 8.1358 26.7295H11.5089V6.93151C11.5089 6.68335 11.6127 6.53421 11.8203 6.4841C12.028 6.43459 12.2294 6.50916 12.4248 6.70781L13.5245 7.82634L15.1741 6.18612C15.2967 6.06204 15.4371 6 15.5955 6C15.7545 6 15.8952 6.06204 16.0178 6.18612L17.6305 7.82634L19.2801 6.18612C19.4021 6.06204 19.5425 6 19.7015 6C19.8604 6 20.0009 6.06204 20.1229 6.18612L21.7364 7.82634L23.386 6.18612C23.508 6.06204 23.6485 6 23.8074 6C23.9664 6 24.1069 6.06204 24.2288 6.18612L25.8784 7.82634L27.528 6.18612C27.626 6.06204 27.7542 6 27.9125 6C28.0715 6 28.2122 6.06204 28.3348 6.18612L29.9844 7.82634L31.0841 6.70781C31.2795 6.50916 31.4809 6.43459 31.6886 6.4841C31.8962 6.53421 32 6.69588 32 6.9691V30.5325C32 31.5019 31.6701 32.3222 31.0102 32.9933C30.3504 33.6644 29.5562 34 28.6278 34H10.3722ZM28.6278 32.1361C29.0677 32.1361 29.4342 31.9869 29.7275 31.6887C30.0208 31.3904 30.1674 31.005 30.1674 30.5325V9.02004H13.3415V26.7295H25.9154C26.2327 26.7295 26.5013 26.8414 26.7213 27.0651C26.9412 27.2888 27.0512 27.5623 27.0512 27.8857V30.5325C27.0512 31.005 27.1978 31.3904 27.4911 31.6887C27.7844 31.9869 28.1633 32.1361 28.6278 32.1361ZM16.2008 14.5751C15.9562 14.5751 15.7486 14.4818 15.5779 14.295C15.4066 14.1089 15.321 13.8915 15.321 13.6427C15.321 13.3695 15.4125 13.1458 15.5955 12.9716C15.7791 12.798 15.9932 12.7112 16.2378 12.7112H22.7262C22.9948 12.7112 23.2148 12.798 23.386 12.9716C23.5567 13.1458 23.642 13.3695 23.642 13.6427C23.642 13.9165 23.5567 14.1402 23.386 14.3138C23.2148 14.488 22.9948 14.5751 22.7262 14.5751H16.2008ZM16.2008 19.3105C15.9562 19.3105 15.7486 19.2172 15.5779 19.0305C15.4066 18.8443 15.321 18.6269 15.321 18.3781C15.321 18.1049 15.4125 17.8812 15.5955 17.707C15.7791 17.5328 15.9932 17.4457 16.2378 17.4457H22.7262C22.9948 17.4457 23.2148 17.5328 23.386 17.707C23.5567 17.8812 23.642 18.1049 23.642 18.3781C23.642 18.6513 23.5567 18.8751 23.386 19.0492C23.2148 19.2234 22.9948 19.3105 22.7262 19.3105H16.2008ZM26.9412 14.7988C26.6239 14.7988 26.3553 14.6807 26.1353 14.4445C25.9154 14.2082 25.8054 13.941 25.8054 13.6427C25.8054 13.3444 25.9154 13.0834 26.1353 12.8597C26.3553 12.636 26.6239 12.5242 26.9412 12.5242C27.2345 12.5242 27.4911 12.636 27.711 12.8597C27.931 13.0834 28.041 13.3444 28.041 13.6427C28.041 13.941 27.931 14.2082 27.711 14.4445C27.4911 14.6807 27.2345 14.7988 26.9412 14.7988ZM26.9412 19.4224C26.6239 19.4224 26.3553 19.3105 26.1353 19.0868C25.9154 18.8631 25.8054 18.6021 25.8054 18.3039C25.8054 17.9805 25.9154 17.707 26.1353 17.4833C26.3553 17.2596 26.6239 17.1477 26.9412 17.1477C27.2345 17.1477 27.4911 17.2596 27.711 17.4833C27.931 17.707 28.041 17.9805 28.041 18.3039C28.041 18.6021 27.931 18.8631 27.711 19.0868C27.4911 19.3105 27.2345 19.4224 26.9412 19.4224ZM10.3722 32.1361H25.2186V28.5944H8.83259V30.5325C8.83259 31.005 8.97923 31.3904 9.27249 31.6887C9.56575 31.9869 9.93233 32.1361 10.3722 32.1361ZM8.83259 32.1361C8.83259 32.1361 8.83259 31.9869 8.83259 31.6887C8.83259 31.3904 8.83259 31.005 8.83259 30.5325V28.5944V32.1361Z" fill="#FCFCFC"/>
</g>
</svg>
