<svg width="40" height="40" viewBox="0 0 40 40" fill="none" xmlns="http://www.w3.org/2000/svg">
<mask id="mask0_1039_2182" style="mask-type:alpha" maskUnits="userSpaceOnUse" x="0" y="0" width="40" height="40">
<rect width="40" height="40" fill="#D9D9D9"/>
</mask>
<g mask="url(#mask0_1039_2182)">
<path d="M9.708 21.833C9.208 21.833 8.77767 21.6527 8.417 21.292C8.05567 20.9307 7.875 20.5 7.875 20C7.875 19.5 8.05567 19.0693 8.417 18.708C8.77767 18.3473 9.222 18.167 9.75 18.167C10.25 18.167 10.6807 18.3473 11.042 18.708C11.4027 19.0693 11.583 19.5 11.583 20C11.583 20.5 11.4027 20.9307 11.042 21.292C10.6807 21.6527 10.236 21.833 9.708 21.833ZM20 21.833C19.5 21.833 19.0693 21.6527 18.708 21.292C18.3473 20.9307 18.167 20.5 18.167 20C18.167 19.5 18.3473 19.0693 18.708 18.708C19.0693 18.3473 19.5 18.167 20 18.167C20.5 18.167 20.9307 18.3473 21.292 18.708C21.6527 19.0693 21.833 19.5 21.833 20C21.833 20.5 21.6527 20.9307 21.292 21.292C20.9307 21.6527 20.5 21.833 20 21.833ZM30.25 21.833C29.75 21.833 29.3193 21.6527 28.958 21.292C28.5973 20.9307 28.417 20.5 28.417 20C28.417 19.5 28.5973 19.0693 28.958 18.708C29.3193 18.3473 29.764 18.167 30.292 18.167C30.792 18.167 31.2223 18.3473 31.583 18.708C31.9443 19.0693 32.125 19.5 32.125 20C32.125 20.5 31.9443 20.9307 31.583 21.292C31.2223 21.6527 30.778 21.833 30.25 21.833Z" fill="#FCFCFC"/>
</g>
</svg>
