<svg width="40" height="40" viewBox="0 0 40 40" fill="none" xmlns="http://www.w3.org/2000/svg">
<mask id="mask0_1039_1642" style="mask-type:alpha" maskUnits="userSpaceOnUse" x="0" y="0" width="40" height="40">
<rect width="40" height="40" fill="#D9D9D9"/>
</mask>
<g mask="url(#mask0_1039_1642)">
<path d="M7.91701 18.542C7.36101 18.542 6.87467 18.3337 6.45801 17.917C6.04134 17.5003 5.83301 17.014 5.83301 16.458V7.91701C5.83301 7.36101 6.04134 6.87467 6.45801 6.45801C6.87467 6.04134 7.36101 5.83301 7.91701 5.83301H16.458C17.014 5.83301 17.5003 6.04134 17.917 6.45801C18.3337 6.87467 18.542 7.36101 18.542 7.91701V16.458C18.542 17.014 18.3337 17.5003 17.917 17.917C17.5003 18.3337 17.014 18.542 16.458 18.542H7.91701ZM7.91701 34.167C7.36101 34.167 6.87467 33.9587 6.45801 33.542C6.04134 33.1253 5.83301 32.639 5.83301 32.083V23.542C5.83301 22.986 6.04134 22.4997 6.45801 22.083C6.87467 21.6663 7.36101 21.458 7.91701 21.458H16.458C17.014 21.458 17.5003 21.6663 17.917 22.083C18.3337 22.4997 18.542 22.986 18.542 23.542V32.083C18.542 32.639 18.3337 33.1253 17.917 33.542C17.5003 33.9587 17.014 34.167 16.458 34.167H7.91701ZM23.542 18.542C22.986 18.542 22.4997 18.3337 22.083 17.917C21.6663 17.5003 21.458 17.014 21.458 16.458V7.91701C21.458 7.36101 21.6663 6.87467 22.083 6.45801C22.4997 6.04134 22.986 5.83301 23.542 5.83301H32.083C32.639 5.83301 33.1253 6.04134 33.542 6.45801C33.9587 6.87467 34.167 7.36101 34.167 7.91701V16.458C34.167 17.014 33.9587 17.5003 33.542 17.917C33.1253 18.3337 32.639 18.542 32.083 18.542H23.542ZM23.542 34.167C22.986 34.167 22.4997 33.9587 22.083 33.542C21.6663 33.1253 21.458 32.639 21.458 32.083V23.542C21.458 22.986 21.6663 22.4997 22.083 22.083C22.4997 21.6663 22.986 21.458 23.542 21.458H32.083C32.639 21.458 33.1253 21.6663 33.542 22.083C33.9587 22.4997 34.167 22.986 34.167 23.542V32.083C34.167 32.639 33.9587 33.1253 33.542 33.542C33.1253 33.9587 32.639 34.167 32.083 34.167H23.542ZM7.91701 16.458H16.458V7.91701H7.91701V16.458ZM23.542 16.458H32.083V7.91701H23.542V16.458ZM23.542 32.083H32.083V23.542H23.542V32.083ZM7.91701 32.083H16.458V23.542H7.91701V32.083Z" fill="#FCFCFC"/>
</g>
</svg>
