<svg width="40" height="40" viewBox="0 0 40 40" fill="none" xmlns="http://www.w3.org/2000/svg">
<mask id="mask0_1039_2186" style="mask-type:alpha" maskUnits="userSpaceOnUse" x="0" y="0" width="40" height="40">
<rect width="40" height="40" fill="#D9D9D9"/>
</mask>
<g mask="url(#mask0_1039_2186)">
<path d="M9.583 32.083H15.792V21.958H24.208V32.083H30.417V16.458L20 8.62499L9.583 16.458V32.083ZM9.583 34.167C9.02767 34.167 8.54167 33.9587 8.125 33.542C7.70833 33.1253 7.5 32.639 7.5 32.083V16.458C7.5 16.1247 7.56933 15.8123 7.708 15.521C7.84733 15.229 8.05567 14.986 8.333 14.792L18.75 6.95799C18.9447 6.81933 19.146 6.71533 19.354 6.64599C19.5627 6.57666 19.778 6.54199 20 6.54199C20.222 6.54199 20.4373 6.57666 20.646 6.64599C20.854 6.71533 21.0553 6.81933 21.25 6.95799L31.667 14.792C31.9443 14.986 32.1527 15.229 32.292 15.521C32.4307 15.8123 32.5 16.1247 32.5 16.458V32.083C32.5 32.639 32.2917 33.1253 31.875 33.542C31.4583 33.9587 30.9723 34.167 30.417 34.167H22.125V24.042H17.875V34.167H9.583Z" fill="#FCFCFC"/>
</g>
</svg>
