<svg width="40" height="40" viewBox="0 0 40 40" fill="none"
  xmlns="http://www.w3.org/2000/svg">
  <mask id="mask0_1040_1708" style="mask-type:alpha" maskUnits="userSpaceOnUse" x="0" y="0" width="40" height="40">
    <rect width="40" height="40" fill="#D9D9D9"/>
  </mask>
  <g mask="url(#mask0_1040_1708)">
    <path fill-rule="evenodd" clip-rule="evenodd" d="M10.1429 13.2C8.99884 13.2 8.07143 14.185 8.07143 15.4V28.6C8.07143 29.815 8.99884 30.8 10.1429 30.8H30.8571C32.0012 30.8 32.9286 29.815 32.9286 28.6V15.4C32.9286 14.185 32.0012 13.2 30.8571 13.2H10.1429ZM6 15.4C6 12.9699 7.85482 11 10.1429 11H30.8571C33.1452 11 35 12.9699 35 15.4V28.6C35 31.0301 33.1452 33 30.8571 33H10.1429C7.85482 33 6 31.0301 6 28.6V15.4Z" fill="#FCFCFC"/>
    <path fill-rule="evenodd" clip-rule="evenodd" d="M26.8578 5.07812C27.4819 4.95546 28.1241 4.97746 28.7393 5.14263C29.3579 5.30875 29.9339 5.61557 30.4261 6.0412C30.9182 6.46684 31.3145 7.0008 31.5866 7.60499C31.8586 8.20918 31.9998 8.8687 32 9.5365V11.5996H29.8956V9.5372C29.8956 9.53709 29.8956 9.53697 29.8956 9.53685C29.8954 9.19295 29.8227 8.85332 29.6826 8.54218C29.5424 8.23094 29.3383 7.95587 29.0848 7.7366C28.8312 7.51733 28.5345 7.35927 28.2158 7.2737C27.8971 7.18813 27.5643 7.17715 27.2411 7.24155C27.2344 7.24287 27.2278 7.24413 27.2211 7.24531L9.9128 10.334C9.40494 10.4374 8.94701 10.7218 8.61718 11.1389C8.28541 11.5584 8.10406 12.0858 8.10441 12.6302L8.10441 16H6V12.6312C6 12.6311 6 12.631 6 12.6309C5.99948 11.5745 6.3515 10.551 6.99537 9.73684C7.6394 8.92249 8.53504 8.36866 9.52784 8.17085C9.53447 8.16952 9.54112 8.16827 9.54778 8.16708L26.8578 5.07812Z" fill="#FCFCFC"/>
    <path d="M28 24C27.6044 24 27.2178 23.8827 26.8889 23.6629C26.56 23.4432 26.3036 23.1308 26.1522 22.7654C26.0009 22.3999 25.9613 21.9978 26.0384 21.6098C26.1156 21.2219 26.3061 20.8655 26.5858 20.5858C26.8655 20.3061 27.2219 20.1156 27.6098 20.0384C27.9978 19.9613 28.3999 20.0009 28.7654 20.1522C29.1308 20.3036 29.4432 20.56 29.6629 20.8889C29.8827 21.2178 30 21.6044 30 22C30 22.5304 29.7893 23.0391 29.4142 23.4142C29.0391 23.7893 28.5304 24 28 24Z" fill="#FCFCFC"/>
  </g>
</svg>
