<svg width="40" height="40" viewBox="0 0 40 40" fill="none" xmlns="http://www.w3.org/2000/svg">
<mask id="mask0_1028_3533" style="mask-type:alpha" maskUnits="userSpaceOnUse" x="0" y="0" width="40" height="40">
<rect width="40" height="40" fill="#D9D9D9"/>
</mask>
<g mask="url(#mask0_1028_3533)">
<path d="M32.3955 15.4795L20.3115 15.4795C20.0062 15.4795 19.7562 15.3822 19.5615 15.1875C19.3675 14.9928 19.2705 14.7428 19.2705 14.4375C19.2705 14.1322 19.3675 13.8822 19.5615 13.6875C19.7562 13.4928 20.0062 13.3955 20.3115 13.3955L32.4365 13.3955L28.0205 8.97951C27.8538 8.78484 27.7635 8.54851 27.7495 8.27051C27.7355 7.99317 27.8395 7.75717 28.0615 7.56251C28.2842 7.34051 28.5342 7.22951 28.8115 7.22951C29.0895 7.22951 29.3395 7.34051 29.5615 7.56251L35.5205 13.5205C35.6592 13.6598 35.7562 13.8058 35.8115 13.9585C35.8675 14.1112 35.8955 14.2708 35.8955 14.4375C35.8955 14.6042 35.8675 14.7638 35.8115 14.9165C35.7562 15.0692 35.6592 15.2152 35.5205 15.3545L29.4785 21.3125C29.2838 21.5072 29.0478 21.6045 28.7705 21.6045C28.4925 21.6045 28.2562 21.4932 28.0615 21.2705C27.8395 21.0765 27.7285 20.8405 27.7285 20.5625C27.7285 20.2845 27.8395 20.0345 28.0615 19.8125L32.3955 15.4795ZM8.27051 25.7705L12.6455 30.1455C12.8395 30.3402 12.9298 30.5765 12.9165 30.8545C12.9025 31.1318 12.7982 31.3678 12.6035 31.5625C12.3815 31.7845 12.1315 31.8955 11.8535 31.8955C11.5755 31.8955 11.3395 31.7845 11.1455 31.5625L5.14551 25.6045C5.00617 25.4652 4.90884 25.3262 4.85351 25.1875C4.79817 25.0488 4.77051 24.8822 4.77051 24.6875C4.77051 24.5208 4.79817 24.3612 4.85351 24.2085C4.90884 24.0558 5.00617 23.9098 5.14551 23.7705L11.1455 17.8125C11.3395 17.6178 11.5755 17.5205 11.8535 17.5205C12.1315 17.5205 12.3815 17.6178 12.6035 17.8125C12.7982 18.0345 12.8955 18.2845 12.8955 18.5625C12.8955 18.8405 12.7982 19.0905 12.6035 19.3125L8.22851 23.6875L20.3535 23.6875C20.6588 23.6875 20.9088 23.7848 21.1035 23.9795C21.2982 24.1735 21.3955 24.4235 21.3955 24.7295C21.3955 25.0348 21.2982 25.2848 21.1035 25.4795C20.9088 25.6735 20.6588 25.7705 20.3535 25.7705L8.27051 25.7705Z" fill="#FCFCFC"/>
</g>
</svg>
